<svg width="88" height="32" viewBox="0 0 88 32" fill="none" xmlns="http://www.w3.org/2000/svg">
<g clip-path="url(#clip0_2096_3439)">
<g clip-path="url(#clip1_2096_3439)">
<path d="M87.9699 19.1296H76.9331V22.8751H87.9699V19.1296Z" fill="white"/>
<path d="M82.5265 2.08643L72.4635 12.2671L75.1104 14.9065L85.1484 4.751L82.5265 2.08643Z" fill="white"/>
<path d="M68.0188 0H64.2982V10.8845H68.0188V0Z" fill="white"/>
<path d="M65.6468 14.2781C63.2746 14.2781 61.2271 15.158 59.5541 16.8924C57.8311 18.6269 57.0071 20.7385 57.0071 23.1517C57.0071 25.5649 57.8311 27.6764 59.5541 29.3858C61.2271 31.1202 63.2746 32.0001 65.6468 32.0001C68.019 32.0001 70.0915 31.1202 71.8394 29.3858C73.5124 27.7015 74.3863 25.59 74.3863 23.1517C74.3863 20.7133 73.5124 18.6269 71.8394 16.8924C70.1165 15.1328 68.0689 14.2781 65.6468 14.2781ZM68.9179 26.3944C68.0439 27.2993 66.9702 27.777 65.6967 27.777C64.4732 27.777 63.3745 27.3245 62.4756 26.3944C61.6016 25.4895 61.1022 24.3834 61.1022 23.1014C61.1022 21.7691 61.6016 20.6631 62.4756 19.8084C63.3495 18.9034 64.4233 18.4258 65.6967 18.4761C66.9702 18.4258 68.0689 18.8783 68.9678 19.8084C69.8418 20.6882 70.2413 21.7691 70.2912 23.1014C70.2413 24.3834 69.7918 25.4895 68.9179 26.3944Z" fill="white"/>
<path d="M55.5089 14.4037L53.9108 14.8562C52.7621 15.3087 51.7633 16.0879 50.9643 17.2443V15.0824L47.019 15.0322V31.8743H51.164V23.8303C51.164 22.4477 51.3388 21.4925 51.7134 20.864C51.9881 20.2356 52.5374 19.6826 53.1617 19.2553C53.8858 18.7525 54.6599 18.5263 55.434 18.5263L56.7074 18.6268L56.6575 14.3283L55.5089 14.4037Z" fill="white"/>
<path d="M42.0998 15.3338C40.6515 14.5546 39.0534 14.1775 37.2306 14.2278C34.409 14.1775 32.4613 14.9568 31.3127 16.465C30.5885 17.3699 30.214 18.6268 30.1391 20.1351H34.3341C34.4339 19.4061 34.6587 18.9033 34.9333 18.5765C35.3828 18.0235 36.1069 17.6967 37.1557 17.747C38.0296 17.6967 38.7038 17.8727 39.2032 18.1492C39.7026 18.3755 39.8774 18.8782 39.9274 19.5569C39.9274 20.1099 39.6028 20.5624 38.9785 20.8389L35.7573 21.3417C34.2591 21.5176 33.0855 21.8947 32.1616 22.4477C30.6135 23.3527 29.8394 24.886 29.8894 27.0227C29.8394 28.531 30.3388 29.7124 31.2877 30.6425C32.1616 31.3715 33.2853 31.7989 34.7086 31.824C36.9809 31.7737 38.8037 31.2207 40.0772 30.0895V31.824H44.2722V19.4815C44.1973 17.4705 43.4731 16.0628 42.0998 15.3338ZM39.7775 24.9866C39.7775 26.4446 39.378 27.4501 38.604 28.0031C37.7799 28.5561 36.9559 28.8829 36.0071 28.8829C35.4078 28.8829 34.9084 28.7069 34.5088 28.3802C34.1093 28.0031 33.9096 27.5003 33.9096 26.7211C33.9096 25.8413 34.2342 25.2631 34.9084 24.8106C35.3079 24.5844 36.0071 24.3582 36.856 24.2576L38.9535 23.7046L39.7775 23.2521V24.9866Z" fill="white"/>
<path d="M27.3924 9.92926H23.1975V31.8491H27.3924V9.92926Z" fill="white"/>
<path d="M10.7372 14.0769C12.0106 14.0769 13.1842 14.454 14.3329 15.183C15.3317 15.8617 16.1557 16.8421 16.705 17.9732H21.0748C20.4506 15.6355 19.2021 13.6747 17.3043 12.2168C15.4066 10.6582 13.1593 9.92926 10.7621 9.92926C7.76572 9.92926 5.29367 10.985 3.22115 13.1217C1.04875 15.2835 0 17.8476 0 20.8641C0 23.8303 1.04875 26.4948 3.17121 28.6567C5.2687 30.7682 7.76572 31.824 10.7621 31.824C13.1842 31.824 15.4066 31.095 17.3043 29.5868C19.1771 28.0282 20.4506 26.1429 21.0748 23.8303H16.73C16.1807 24.9866 15.3566 25.8915 14.3578 26.6205C13.2092 27.2992 12.0856 27.6763 10.7621 27.6763C8.88938 27.6763 7.34123 26.9976 6.06775 25.7156C4.74433 24.3833 4.12008 22.8248 4.17002 20.9646C4.12008 19.0793 4.7693 17.5208 6.06775 16.2136C7.31626 14.7808 8.91435 14.0769 10.7372 14.0769Z" fill="white"/>
</g>
</g>
<defs>
<clipPath id="clip0_2096_3439">
<rect width="88" height="32" fill="white"/>
</clipPath>
<clipPath id="clip1_2096_3439">
<rect width="88" height="32" fill="white"/>
</clipPath>
</defs>
</svg>
