<svg width="144" height="54" viewBox="0 0 144 54" fill="none" xmlns="http://www.w3.org/2000/svg">
<g clip-path="url(#clip0_2071_11615)">
<g clip-path="url(#clip1_2071_11615)">
<path d="M143.296 32.1212H125.4V38.2502H143.296V32.1212Z" fill="#DA291C"/>
<path d="M134.47 4.23242L118.153 20.8917L122.445 25.2108L138.721 8.59263L134.47 4.23242Z" fill="#DA291C"/>
<path d="M110.946 0.818237H104.913V18.6293H110.946V0.818237Z" fill="#DA291C"/>
<path d="M107.1 24.1825C103.253 24.1825 99.9332 25.6222 97.2204 28.4604C94.4267 31.2987 93.0906 34.7539 93.0906 38.7028C93.0906 42.6517 94.4267 46.1069 97.2204 48.9041C99.9332 51.7423 103.253 53.182 107.1 53.182C110.946 53.182 114.307 51.7423 117.141 48.9041C119.854 46.1481 121.271 42.6928 121.271 38.7028C121.271 34.7128 119.854 31.2987 117.141 28.4604C114.347 25.5811 111.027 24.1825 107.1 24.1825ZM112.404 44.0091C110.987 45.4899 109.246 46.2715 107.181 46.2715C105.197 46.2715 103.415 45.5311 101.958 44.0091C100.541 42.5283 99.7307 40.7184 99.7307 38.6205C99.7307 36.4404 100.541 34.6305 101.958 33.232C103.375 31.7512 105.116 30.9696 107.181 31.0519C109.246 30.9696 111.027 31.71 112.485 33.232C113.902 34.6717 114.55 36.4404 114.631 38.6205C114.55 40.7184 113.821 42.5283 112.404 44.0091Z" fill="#DA291C"/>
<path d="M90.6612 24.3879L88.0699 25.1283C86.2074 25.8688 84.5879 27.1439 83.2923 29.0361V25.4985L76.895 25.4163V52.9761H83.6162V39.8132C83.6162 37.5508 83.8996 35.9877 84.5069 34.9594C84.9523 33.931 85.8431 33.0261 86.8553 32.3268C88.0294 31.5041 89.2846 31.1339 90.5398 31.1339L92.6047 31.2984L92.5237 24.2645L90.6612 24.3879Z" fill="#DA291C"/>
<path d="M68.9191 25.9099C66.5707 24.6348 63.9794 24.0178 61.0237 24.1C56.4485 24.0178 53.2904 25.2929 51.4279 27.761C50.2537 29.2418 49.6464 31.2985 49.5249 33.7665H56.327C56.489 32.5736 56.8534 31.751 57.2988 31.2162C58.0276 30.3113 59.2018 29.7765 60.9023 29.8588C62.3194 29.7765 63.4126 30.0645 64.2224 30.517C65.0321 30.8872 65.3156 31.7098 65.3965 32.8204C65.3965 33.7254 64.8702 34.4658 63.858 34.9183L58.6349 35.741C56.2056 36.0289 54.3026 36.6459 52.8045 37.5509C50.2942 39.0317 49.0391 41.5409 49.12 45.0373C49.0391 47.5053 49.8488 49.4386 51.3874 50.9606C52.8045 52.1534 54.6265 52.8527 56.9344 52.8939C60.6189 52.8116 63.5745 51.9066 65.6395 50.0556V52.8939H72.4416V32.697C72.3201 29.4063 71.1459 27.1028 68.9191 25.9099ZM65.1536 41.7054C65.1536 44.0912 64.5058 45.7365 63.2506 46.6415C61.9145 47.5464 60.5784 48.0812 59.0398 48.0812C58.0681 48.0812 57.2583 47.7932 56.6105 47.2585C55.9626 46.6415 55.6387 45.8188 55.6387 44.5436C55.6387 43.104 56.1651 42.1579 57.2583 41.4175C57.9061 41.0473 59.0398 40.677 60.4164 40.5125L63.8175 39.6076L65.1536 38.8672V41.7054Z" fill="#DA291C"/>
<path d="M45.0714 17.0662H38.2693V52.935H45.0714V17.0662Z" fill="#DA291C"/>
<path d="M18.0647 23.8533C20.1297 23.8533 22.0326 24.4703 23.8951 25.6632C25.5147 26.7738 26.8508 28.378 27.7415 30.2291H34.8271C33.8149 26.4036 31.7904 23.1951 28.7133 20.8094C25.6361 18.2591 21.9921 17.0662 18.1052 17.0662C13.2466 17.0662 9.23817 18.7938 5.8776 22.2902C2.35507 25.8277 0.654541 30.0234 0.654541 34.9595C0.654541 39.8133 2.35507 44.1735 5.79662 47.711C9.19768 51.1663 13.2466 52.8939 18.1052 52.8939C22.0326 52.8939 25.6361 51.701 28.7133 49.233C31.7499 46.6827 33.8149 43.5976 34.8271 39.8133H27.782C26.8913 41.7054 25.5552 43.1863 23.9356 44.3792C22.0731 45.4898 20.2511 46.1068 18.1052 46.1068C15.0686 46.1068 12.5582 44.9962 10.4933 42.8983C8.34741 40.7182 7.33519 38.1679 7.41617 35.124C7.33519 32.0389 8.3879 29.4886 10.4933 27.3497C12.5178 25.005 15.109 23.8533 18.0647 23.8533Z" fill="#DA291C"/>
</g>
</g>
<defs>
<clipPath id="clip0_2071_11615">
<rect width="142.691" height="52.3636" fill="white" transform="translate(0.654541 0.818237)"/>
</clipPath>
<clipPath id="clip1_2071_11615">
<rect width="142.691" height="52.3636" fill="white" transform="translate(0.654541 0.818237)"/>
</clipPath>
</defs>
</svg>
